# xmcd CD database file
#
# Track frame offsets:
#	150
#	14122
#	30943
#	46230
#	65780
#	84212
#	98063
#	114677
#	131838
#	145862
#
# Disc length: 2141 seconds
#
# Revision: 0
# Processed by: cddbd v1.4PL0 Copyright (c) Steve Scherf et al.
# Submitted via: CDex 1.40Beta9
#
DISCID=85085b0a
DTITLE=Cor Verhaegh and frends - Let My Steel Do The Talking
DYEAR=1900
DGENRE=Country
TTITLE0=Jordan and Jessy
TTITLE1=The End Of The Line
TTITLE2=Song For Rico
TTITLE3=Silent Strenghth
TTITLE4=I'm Confessin'
TTITLE5=Louisiana South
TTITLE6=Sweet Julia
TTITLE7=Let My Steel Do The Talking
TTITLE8=Little Rody
TTITLE9=Blue Eyes crying In The Rain
EXTD=ID3G: 2
EXTT0=
EXTT1=
EXTT2=
EXTT3=
EXTT4=
EXTT5=
EXTT6=
EXTT7=
EXTT8=
EXTT9=
PLAYORDER=
